<svg xmlns="http://www.w3.org/2000/svg" width="730.391" height="379.528" viewBox="0 0 730.391 379.528">
  <g id="Group_1027" data-name="Group 1027" transform="translate(31.87 831.356)">
    <g id="Group_936" data-name="Group 936">
      <path id="Path_1167" data-name="Path 1167" d="M623.089-498.733c1.426.824,1.434,2.157.016,2.981a5.668,5.668,0,0,1-5.146,0Z" fill="#fff"/>
    </g>
    <g id="Group_937" data-name="Group 937">
      <path id="Path_1168" data-name="Path 1168" d="M692.315-567.927c-1.426-.824-1.434-2.157-.015-2.982l5.162,2.981A5.667,5.667,0,0,1,692.315-567.927Z" fill="#fff"/>
    </g>
    <g id="Group_938" data-name="Group 938">
      <path id="Path_1169" data-name="Path 1169" d="M697.446-570.909c1.425.823,1.435,2.158.017,2.982l-5.163-2.982A5.671,5.671,0,0,1,697.446-570.909Z" fill="#fff"/>
    </g>
    <g id="Group_939" data-name="Group 939">
      <path id="Path_1170" data-name="Path 1170" d="M642.309-596.8c-1.425-.823-1.434-2.157-.015-2.981l5.163,2.98A5.666,5.666,0,0,1,642.309-596.8Z" fill="#fff"/>
    </g>
    <g id="Group_940" data-name="Group 940">
      <path id="Path_1171" data-name="Path 1171" d="M647.441-599.779c1.427.824,1.434,2.157.017,2.981l-5.164-2.981A5.67,5.67,0,0,1,647.441-599.779Z" fill="#fff"/>
    </g>
    <g id="Group_941" data-name="Group 941">
      <path id="Path_1172" data-name="Path 1172" d="M592.307-625.667c-1.428-.824-1.436-2.158-.017-2.982l5.164,2.981A5.664,5.664,0,0,1,592.307-625.667Z" fill="#fff"/>
    </g>
    <g id="Group_942" data-name="Group 942">
      <path id="Path_1173" data-name="Path 1173" d="M597.437-628.649c1.427.824,1.434,2.158.017,2.981l-5.163-2.981A5.671,5.671,0,0,1,597.437-628.649Z" fill="#fff"/>
    </g>
    <g id="Group_943" data-name="Group 943">
      <path id="Path_1174" data-name="Path 1174" d="M542.3-654.537c-1.426-.824-1.434-2.157-.015-2.981l5.163,2.98A5.669,5.669,0,0,1,542.3-654.537Z" fill="#fff"/>
    </g>
    <g id="Group_944" data-name="Group 944">
      <path id="Path_1175" data-name="Path 1175" d="M547.434-657.518c1.425.822,1.434,2.157.017,2.981l-5.164-2.982A5.671,5.671,0,0,1,547.434-657.518Z" fill="#fff"/>
    </g>
    <g id="Group_945" data-name="Group 945">
      <path id="Path_1176" data-name="Path 1176" d="M498.729-455.427c1.425.823,1.432,2.158.016,2.981l-5.162-2.981A5.668,5.668,0,0,1,498.729-455.427Z" fill="#fff"/>
    </g>
    <g id="Group_946" data-name="Group 946">
      <path id="Path_1177" data-name="Path 1177" d="M448.723-484.3c1.427.824,1.433,2.158.017,2.981l-5.163-2.981A5.671,5.671,0,0,1,448.723-484.3Z" fill="#fff"/>
    </g>
    <g id="Group_947" data-name="Group 947">
      <path id="Path_1178" data-name="Path 1178" d="M393.59-510.186c-1.427-.824-1.434-2.158-.016-2.981l5.163,2.981A5.67,5.67,0,0,1,393.59-510.186Z" fill="#fff"/>
    </g>
    <g id="Group_948" data-name="Group 948">
      <path id="Path_1179" data-name="Path 1179" d="M398.72-513.167c1.427.824,1.433,2.158.017,2.981l-5.164-2.982A5.673,5.673,0,0,1,398.72-513.167Z" fill="#fff"/>
    </g>
    <g id="Group_949" data-name="Group 949">
      <path id="Path_1180" data-name="Path 1180" d="M348.716-542.037c1.425.823,1.433,2.158.017,2.981l-5.163-2.981A5.671,5.671,0,0,1,348.716-542.037Z" fill="#fff"/>
    </g>
    <g id="Group_950" data-name="Group 950">
      <path id="Path_1181" data-name="Path 1181" d="M560.909-477.08c1.427.824,1.434,2.157.017,2.981a5.672,5.672,0,0,1-5.148,0c-1.428-.825-1.435-2.158-.016-2.983A5.67,5.67,0,0,1,560.909-477.08Z" fill="#fff"/>
    </g>
    <g id="Group_951" data-name="Group 951">
      <path id="Path_1182" data-name="Path 1182" d="M510.9-505.95c1.425.823,1.434,2.157.017,2.981a5.676,5.676,0,0,1-5.148,0c-1.426-.824-1.434-2.157-.015-2.982A5.671,5.671,0,0,1,510.9-505.95Z" fill="#fff"/>
    </g>
    <g id="Group_952" data-name="Group 952">
      <path id="Path_1183" data-name="Path 1183" d="M460.9-534.821c1.427.824,1.434,2.157.017,2.981a5.669,5.669,0,0,1-5.148,0c-1.425-.823-1.434-2.157-.015-2.982A5.674,5.674,0,0,1,460.9-534.821Z" fill="#fff"/>
    </g>
    <g id="Group_953" data-name="Group 953">
      <path id="Path_1184" data-name="Path 1184" d="M410.9-563.69c1.427.824,1.434,2.157.017,2.981a5.67,5.67,0,0,1-5.147,0c-1.428-.825-1.436-2.158-.017-2.983A5.67,5.67,0,0,1,410.9-563.69Z" fill="#fff"/>
    </g>
    <g id="Group_954" data-name="Group 954">
      <path id="Path_1185" data-name="Path 1185" d="M623.079-498.735l-5.126,2.979c-1.421-.824-1.427-2.155-.013-2.977A5.663,5.663,0,0,1,623.079-498.735Z" fill="#fff"/>
    </g>
    <g id="Group_955" data-name="Group 955">
      <path id="Path_1186" data-name="Path 1186" d="M573.084-527.6c1.426.824,1.434,2.157.016,2.981a5.669,5.669,0,0,1-5.145,0c-1.429-.825-1.435-2.159-.019-2.982A5.672,5.672,0,0,1,573.084-527.6Z" fill="#fff"/>
    </g>
    <g id="Group_956" data-name="Group 956">
      <ellipse id="Ellipse_83" data-name="Ellipse 83" cx="2.108" cy="3.639" rx="2.108" ry="3.639" transform="matrix(0.003, -1, 1, 0.003, 516.87, -552.884)" fill="#fff"/>
    </g>
    <g id="Group_957" data-name="Group 957">
      <ellipse id="Ellipse_84" data-name="Ellipse 84" cx="2.108" cy="3.639" rx="2.108" ry="3.639" transform="matrix(0.003, -1, 1, 0.003, 466.864, -581.755)" fill="#fff"/>
    </g>
    <g id="Group_958" data-name="Group 958">
      <path id="Path_1187" data-name="Path 1187" d="M417.925-614.212a5.671,5.671,0,0,1,5.146,0l-5.129,2.981C416.515-612.055,416.509-613.389,417.925-614.212Z" fill="#fff"/>
    </g>
    <g id="Group_959" data-name="Group 959">
      <path id="Path_1188" data-name="Path 1188" d="M423.088-611.231a5.668,5.668,0,0,1-5.146,0l5.129-2.981C424.5-613.388,424.505-612.055,423.088-611.231Z" fill="#fff"/>
    </g>
    <g id="Group_960" data-name="Group 960">
      <ellipse id="Ellipse_85" data-name="Ellipse 85" cx="2.108" cy="3.639" rx="2.108" ry="3.639" transform="matrix(0.003, -1, 1, 0.003, 629.055, -545.669)" fill="#fff"/>
    </g>
    <g id="Group_961" data-name="Group 961">
      <path id="Path_1189" data-name="Path 1189" d="M585.261-578.126c1.427.824,1.433,2.158.017,2.981a5.665,5.665,0,0,1-5.146,0c-1.428-.824-1.435-2.158-.018-2.981A5.67,5.67,0,0,1,585.261-578.126Z" fill="#fff"/>
    </g>
    <g id="Group_962" data-name="Group 962">
      <ellipse id="Ellipse_86" data-name="Ellipse 86" cx="2.108" cy="3.639" rx="2.108" ry="3.639" transform="matrix(0.003, -1, 1, 0.003, 529.048, -603.408)" fill="#fff"/>
    </g>
    <g id="Group_963" data-name="Group 963">
      <ellipse id="Ellipse_87" data-name="Ellipse 87" cx="2.108" cy="3.639" rx="2.108" ry="3.639" transform="matrix(0.003, -1, 1, 0.003, 479.042, -632.279)" fill="#fff"/>
    </g>
    <g id="Group_964" data-name="Group 964">
      <path id="Path_1190" data-name="Path 1190" d="M274.359-469.862c1.426.824,1.434,2.157.016,2.981a5.668,5.668,0,0,1-5.146,0c-1.425-.823-1.435-2.158-.017-2.982A5.673,5.673,0,0,1,274.359-469.862Z" fill="#fff"/>
    </g>
    <g id="Group_965" data-name="Group 965">
      <path id="Path_1191" data-name="Path 1191" d="M224.372-495.75a5.665,5.665,0,0,1-5.146,0l5.129-2.981C225.782-497.907,225.789-496.574,224.372-495.75Z" fill="#fff"/>
    </g>
    <g id="Group_966" data-name="Group 966">
      <path id="Path_1192" data-name="Path 1192" d="M386.543-462.643c1.427.823,1.434,2.157.017,2.98a5.673,5.673,0,0,1-5.147,0c-1.427-.824-1.432-2.159-.016-2.982A5.662,5.662,0,0,1,386.543-462.643Z" fill="#fff"/>
    </g>
    <g id="Group_967" data-name="Group 967">
      <path id="Path_1193" data-name="Path 1193" d="M336.539-491.513c1.425.822,1.435,2.157.018,2.981a5.682,5.682,0,0,1-5.148,0c-1.426-.824-1.431-2.159-.016-2.981A5.665,5.665,0,0,1,336.539-491.513Z" fill="#fff"/>
    </g>
    <g id="Group_968" data-name="Group 968">
      <path id="Path_1194" data-name="Path 1194" d="M286.534-520.384c1.426.824,1.434,2.157.017,2.981a5.673,5.673,0,0,1-5.147,0c-1.425-.822-1.432-2.159-.017-2.981A5.673,5.673,0,0,1,286.534-520.384Z" fill="#fff"/>
    </g>
    <g id="Group_969" data-name="Group 969">
      <path id="Path_1195" data-name="Path 1195" d="M493.6-452.446c-1.427-.823-1.434-2.158-.017-2.981l5.164,2.981A5.67,5.67,0,0,1,493.6-452.446Z" fill="#fff"/>
    </g>
    <g id="Group_970" data-name="Group 970">
      <path id="Path_1196" data-name="Path 1196" d="M443.594-481.316c-1.425-.823-1.434-2.158-.017-2.982l5.163,2.981A5.668,5.668,0,0,1,443.594-481.316Z" fill="#fff"/>
    </g>
    <g id="Group_971" data-name="Group 971">
      <path id="Path_1197" data-name="Path 1197" d="M343.586-539.056c-1.426-.823-1.433-2.157-.016-2.981l5.164,2.981A5.672,5.672,0,0,1,343.586-539.056Z" fill="#fff"/>
    </g>
    <g id="Group_972" data-name="Group 972">
      <path id="Path_1198" data-name="Path 1198" d="M497.429-686.389c1.426.824,1.434,2.158.017,2.981l-5.164-2.981A5.67,5.67,0,0,1,497.429-686.389Z" fill="#fff"/>
    </g>
    <g id="Group_973" data-name="Group 973">
      <path id="Path_1199" data-name="Path 1199" d="M442.294-712.277c-1.427-.823-1.434-2.157-.015-2.981l5.164,2.981A5.666,5.666,0,0,1,442.294-712.277Z" fill="#fff"/>
    </g>
    <g id="Group_974" data-name="Group 974">
      <path id="Path_1200" data-name="Path 1200" d="M447.425-715.259c1.426.824,1.434,2.158.017,2.982l-5.164-2.982A5.673,5.673,0,0,1,447.425-715.259Z" fill="#fff"/>
    </g>
    <g id="Group_975" data-name="Group 975">
      <path id="Path_1201" data-name="Path 1201" d="M392.291-741.146c-1.426-.824-1.434-2.157-.015-2.981l5.163,2.98A5.67,5.67,0,0,1,392.291-741.146Z" fill="#fff"/>
    </g>
    <g id="Group_976" data-name="Group 976">
      <path id="Path_1202" data-name="Path 1202" d="M397.421-744.128c1.425.823,1.434,2.157.017,2.981l-5.163-2.981A5.665,5.665,0,0,1,397.421-744.128Z" fill="#fff"/>
    </g>
    <g id="Group_977" data-name="Group 977">
      <path id="Path_1203" data-name="Path 1203" d="M342.285-770.017c-1.425-.823-1.434-2.157-.015-2.981l5.163,2.98A5.666,5.666,0,0,1,342.285-770.017Z" fill="#fff"/>
    </g>
    <g id="Group_978" data-name="Group 978">
      <path id="Path_1204" data-name="Path 1204" d="M347.416-773c1.426.824,1.434,2.158.017,2.981L342.269-773A5.673,5.673,0,0,1,347.416-773Z" fill="#fff"/>
    </g>
    <g id="Group_979" data-name="Group 979">
      <path id="Path_1205" data-name="Path 1205" d="M298.712-570.907c1.426.824,1.432,2.158.017,2.981l-5.163-2.981A5.671,5.671,0,0,1,298.712-570.907Z" fill="#fff"/>
    </g>
    <g id="Group_980" data-name="Group 980">
      <path id="Path_1206" data-name="Path 1206" d="M248.708-599.777c1.428.825,1.434,2.159.018,2.982l-5.164-2.982A5.674,5.674,0,0,1,248.708-599.777Z" fill="#fff"/>
    </g>
    <g id="Group_981" data-name="Group 981">
      <path id="Path_1207" data-name="Path 1207" d="M198.705-628.646c1.425.823,1.432,2.158.017,2.981l-5.163-2.981A5.671,5.671,0,0,1,198.705-628.646Z" fill="#fff"/>
    </g>
    <g id="Group_982" data-name="Group 982">
      <path id="Path_1208" data-name="Path 1208" d="M143.569-654.535c-1.425-.823-1.434-2.158-.017-2.982l5.165,2.982A5.676,5.676,0,0,1,143.569-654.535Z" fill="#fff"/>
    </g>
    <g id="Group_983" data-name="Group 983">
      <path id="Path_1209" data-name="Path 1209" d="M148.7-657.517c1.427.824,1.433,2.158.017,2.981l-5.163-2.981A5.678,5.678,0,0,1,148.7-657.517Z" fill="#fff"/>
    </g>
    <g id="Group_984" data-name="Group 984">
      <path id="Path_1210" data-name="Path 1210" d="M360.894-592.559c1.425.823,1.434,2.157.016,2.981a5.673,5.673,0,0,1-5.147,0c-1.427-.824-1.434-2.157-.015-2.982A5.671,5.671,0,0,1,360.894-592.559Z" fill="#fff"/>
    </g>
    <g id="Group_985" data-name="Group 985">
      <path id="Path_1211" data-name="Path 1211" d="M310.888-621.43c1.426.824,1.434,2.157.017,2.981a5.67,5.67,0,0,1-5.148,0c-1.425-.823-1.434-2.157-.015-2.982A5.674,5.674,0,0,1,310.888-621.43Z" fill="#fff"/>
    </g>
    <g id="Group_986" data-name="Group 986">
      <path id="Path_1212" data-name="Path 1212" d="M260.884-650.3c1.428.825,1.435,2.158.018,2.982a5.672,5.672,0,0,1-5.149,0c-1.426-.824-1.434-2.157-.015-2.982A5.671,5.671,0,0,1,260.884-650.3Z" fill="#fff"/>
    </g>
    <g id="Group_987" data-name="Group 987">
      <path id="Path_1213" data-name="Path 1213" d="M210.881-679.169c1.425.823,1.434,2.157.017,2.981a5.673,5.673,0,0,1-5.148,0c-1.426-.824-1.434-2.157-.015-2.982A5.671,5.671,0,0,1,210.881-679.169Z" fill="#fff"/>
    </g>
    <g id="Group_988" data-name="Group 988">
      <ellipse id="Ellipse_88" data-name="Ellipse 88" cx="2.108" cy="3.639" rx="2.108" ry="3.639" transform="matrix(0.003, -1, 1, 0.003, 366.859, -639.493)" fill="#fff"/>
    </g>
    <g id="Group_989" data-name="Group 989">
      <ellipse id="Ellipse_89" data-name="Ellipse 89" cx="2.108" cy="3.639" rx="2.108" ry="3.639" transform="matrix(0.003, -1, 1, 0.003, 316.853, -668.364)" fill="#fff"/>
    </g>
    <g id="Group_990" data-name="Group 990">
      <path id="Path_1214" data-name="Path 1214" d="M273.058-700.822c1.428.825,1.436,2.158.018,2.982a5.667,5.667,0,0,1-5.147,0c-1.426-.824-1.432-2.158-.017-2.981A5.671,5.671,0,0,1,273.058-700.822Z" fill="#fff"/>
    </g>
    <g id="Group_991" data-name="Group 991">
      <path id="Path_1215" data-name="Path 1215" d="M223.06-729.686c1.421.823,1.428,2.153.012,2.976a5.667,5.667,0,0,1-5.138,0Z" fill="#fff"/>
    </g>
    <g id="Group_992" data-name="Group 992">
      <path id="Path_1216" data-name="Path 1216" d="M435.248-664.736c1.428.825,1.434,2.159.019,2.982a5.666,5.666,0,0,1-5.148,0c-1.426-.823-1.434-2.157-.016-2.98A5.669,5.669,0,0,1,435.248-664.736Z" fill="#fff"/>
    </g>
    <g id="Group_993" data-name="Group 993">
      <ellipse id="Ellipse_90" data-name="Ellipse 90" cx="2.108" cy="3.639" rx="2.108" ry="3.639" transform="matrix(0.003, -1, 1, 0.003, 379.037, -690.017)" fill="#fff"/>
    </g>
    <g id="Group_994" data-name="Group 994">
      <ellipse id="Ellipse_91" data-name="Ellipse 91" cx="2.108" cy="3.639" rx="2.108" ry="3.639" transform="matrix(0.003, -1, 1, 0.003, 329.031, -718.888)" fill="#fff"/>
    </g>
    <g id="Group_995" data-name="Group 995">
      <path id="Path_1217" data-name="Path 1217" d="M285.236-751.345c1.428.824,1.434,2.158.018,2.981a5.664,5.664,0,0,1-5.147,0c-1.427-.823-1.434-2.157-.017-2.98A5.668,5.668,0,0,1,285.236-751.345Z" fill="#fff"/>
    </g>
    <g id="Group_996" data-name="Group 996">
      <path id="Path_1218" data-name="Path 1218" d="M492.3-683.407c-1.425-.823-1.434-2.157-.015-2.981l5.162,2.98A5.664,5.664,0,0,1,492.3-683.407Z" fill="#fff"/>
    </g>
    <g id="Group_997" data-name="Group 997">
      <path id="Path_1219" data-name="Path 1219" d="M219.21-498.731a5.663,5.663,0,0,1,5.145,0l-5.129,2.981C217.8-496.573,217.791-497.907,219.21-498.731Z" fill="#fff"/>
    </g>
    <g id="Group_998" data-name="Group 998">
      <path id="Path_1220" data-name="Path 1220" d="M174.352-527.6c1.425.822,1.435,2.157.018,2.981a5.675,5.675,0,0,1-5.148,0c-1.426-.824-1.434-2.157-.016-2.981A5.665,5.665,0,0,1,174.352-527.6Z" fill="#fff"/>
    </g>
    <g id="Group_999" data-name="Group 999">
      <path id="Path_1221" data-name="Path 1221" d="M124.347-556.471c1.426.824,1.434,2.157.017,2.981a5.667,5.667,0,0,1-5.147,0c-1.425-.822-1.435-2.157-.017-2.981A5.673,5.673,0,0,1,124.347-556.471Z" fill="#fff"/>
    </g>
    <g id="Group_1000" data-name="Group 1000">
      <path id="Path_1222" data-name="Path 1222" d="M74.343-585.341c1.427.824,1.435,2.158.017,2.981a5.667,5.667,0,0,1-5.147,0c-1.427-.823-1.434-2.157-.016-2.981A5.671,5.671,0,0,1,74.343-585.341Z" fill="#fff"/>
    </g>
    <g id="Group_1001" data-name="Group 1001">
      <path id="Path_1223" data-name="Path 1223" d="M24.346-614.205c1.416.822,1.426,2.154.011,2.976a5.678,5.678,0,0,1-5.139,0Z" fill="#fff"/>
    </g>
    <g id="Group_1002" data-name="Group 1002">
      <path id="Path_1224" data-name="Path 1224" d="M236.53-549.253c1.428.824,1.435,2.157.018,2.981a5.674,5.674,0,0,1-5.147,0c-1.427-.824-1.432-2.159-.016-2.981A5.663,5.663,0,0,1,236.53-549.253Z" fill="#fff"/>
    </g>
    <g id="Group_1003" data-name="Group 1003">
      <path id="Path_1225" data-name="Path 1225" d="M186.527-578.123c1.425.823,1.435,2.158.018,2.981a5.675,5.675,0,0,1-5.148,0c-1.426-.823-1.431-2.158-.015-2.981A5.669,5.669,0,0,1,186.527-578.123Z" fill="#fff"/>
    </g>
    <g id="Group_1004" data-name="Group 1004">
      <path id="Path_1226" data-name="Path 1226" d="M136.522-606.993c1.427.823,1.434,2.157.017,2.98a5.67,5.67,0,0,1-5.147,0c-1.424-.823-1.432-2.159-.017-2.982A5.673,5.673,0,0,1,136.522-606.993Z" fill="#fff"/>
    </g>
    <g id="Group_1005" data-name="Group 1005">
      <path id="Path_1227" data-name="Path 1227" d="M86.518-635.863c1.427.824,1.435,2.157.018,2.981a5.672,5.672,0,0,1-5.148,0c-1.427-.824-1.431-2.159-.016-2.981A5.665,5.665,0,0,1,86.518-635.863Z" fill="#fff"/>
    </g>
    <g id="Group_1006" data-name="Group 1006">
      <path id="Path_1228" data-name="Path 1228" d="M293.582-567.926c-1.425-.822-1.434-2.158-.017-2.981l5.163,2.981A5.668,5.668,0,0,1,293.582-567.926Z" fill="#fff"/>
    </g>
    <g id="Group_1007" data-name="Group 1007">
      <path id="Path_1229" data-name="Path 1229" d="M243.578-596.8c-1.427-.823-1.433-2.157-.016-2.981l5.163,2.981A5.664,5.664,0,0,1,243.578-596.8Z" fill="#fff"/>
    </g>
    <g id="Group_1008" data-name="Group 1008">
      <path id="Path_1230" data-name="Path 1230" d="M193.574-625.665c-1.426-.824-1.433-2.157-.015-2.981l5.163,2.981A5.673,5.673,0,0,1,193.574-625.665Z" fill="#fff"/>
    </g>
    <g id="Group_1009" data-name="Group 1009">
      <path id="Path_1231" data-name="Path 1231" d="M297.412-801.868c1.427.823,1.434,2.157.017,2.981l-5.163-2.981A5.665,5.665,0,0,1,297.412-801.868Z" fill="#fff"/>
    </g>
    <g id="Group_1010" data-name="Group 1010">
      <path id="Path_1232" data-name="Path 1232" d="M242.278-827.757c-1.426-.823-1.433-2.157-.016-2.981l5.164,2.981A5.672,5.672,0,0,1,242.278-827.757Z" fill="#fff"/>
    </g>
    <g id="Group_1011" data-name="Group 1011">
      <path id="Path_1233" data-name="Path 1233" d="M247.408-830.738c1.426.823,1.435,2.157.017,2.981l-5.163-2.981A5.665,5.665,0,0,1,247.408-830.738Z" fill="#fff"/>
    </g>
    <g id="Group_1012" data-name="Group 1012">
      <path id="Path_1234" data-name="Path 1234" d="M93.549-686.387l5.163,2.981a5.665,5.665,0,0,1-5.146,0C92.139-684.229,92.131-685.563,93.549-686.387Z" fill="#fff"/>
    </g>
    <g id="Group_1013" data-name="Group 1013">
      <path id="Path_1235" data-name="Path 1235" d="M98.7-686.387c1.427.824,1.433,2.159.016,2.982l-5.163-2.982A5.673,5.673,0,0,1,98.7-686.387Z" fill="#fff"/>
    </g>
    <g id="Group_1014" data-name="Group 1014">
      <path id="Path_1236" data-name="Path 1236" d="M48.692-715.257c1.426.823,1.433,2.159.017,2.982l-5.164-2.981A5.673,5.673,0,0,1,48.692-715.257Z" fill="#fff"/>
    </g>
    <g id="Group_1015" data-name="Group 1015">
      <path id="Path_1237" data-name="Path 1237" d="M160.875-708.04c1.426.824,1.434,2.158.017,2.981a5.67,5.67,0,0,1-5.147,0c-1.425-.823-1.434-2.158-.016-2.982A5.671,5.671,0,0,1,160.875-708.04Z" fill="#fff"/>
    </g>
    <g id="Group_1016" data-name="Group 1016">
      <path id="Path_1238" data-name="Path 1238" d="M110.871-736.91c1.427.824,1.434,2.158.018,2.982a5.676,5.676,0,0,1-5.148,0c-1.426-.824-1.434-2.158-.016-2.982A5.671,5.671,0,0,1,110.871-736.91Z" fill="#fff"/>
    </g>
    <g id="Group_1017" data-name="Group 1017">
      <path id="Path_1239" data-name="Path 1239" d="M217.91-729.692a5.671,5.671,0,0,1,5.146,0l-5.13,2.982C216.5-727.534,216.493-728.869,217.91-729.692Z" fill="#fff"/>
    </g>
    <g id="Group_1018" data-name="Group 1018">
      <path id="Path_1240" data-name="Path 1240" d="M173.051-758.562c1.426.823,1.433,2.157.016,2.981a5.668,5.668,0,0,1-5.146,0c-1.426-.823-1.433-2.158-.017-2.981A5.67,5.67,0,0,1,173.051-758.562Z" fill="#fff"/>
    </g>
    <g id="Group_1019" data-name="Group 1019">
      <path id="Path_1241" data-name="Path 1241" d="M235.233-780.215c1.425.823,1.433,2.158.017,2.981a5.67,5.67,0,0,1-5.147,0c-1.426-.824-1.434-2.157-.017-2.981A5.67,5.67,0,0,1,235.233-780.215Z" fill="#fff"/>
    </g>
    <g id="Group_1020" data-name="Group 1020">
      <path id="Path_1242" data-name="Path 1242" d="M185.228-809.086c1.426.824,1.432,2.158.016,2.981a5.665,5.665,0,0,1-5.146,0c-1.425-.823-1.435-2.157-.017-2.981A5.673,5.673,0,0,1,185.228-809.086Z" fill="#fff"/>
    </g>
    <g id="Group_1021" data-name="Group 1021">
      <path id="Path_1243" data-name="Path 1243" d="M292.282-798.887c-1.426-.823-1.434-2.157-.016-2.981l5.163,2.981A5.667,5.667,0,0,1,292.282-798.887Z" fill="#fff"/>
    </g>
    <g id="Group_1022" data-name="Group 1022">
      <path id="Path_1244" data-name="Path 1244" d="M19.193-614.211a5.67,5.67,0,0,1,5.147,0l-5.13,2.981C17.783-612.053,17.775-613.387,19.193-614.211Z" fill="#fff"/>
    </g>
    <g id="Group_1023" data-name="Group 1023">
      <path id="Path_1245" data-name="Path 1245" d="M-25.666-643.081c1.427.824,1.434,2.158.017,2.981a5.667,5.667,0,0,1-5.147,0c-1.425-.823-1.434-2.157-.016-2.981A5.668,5.668,0,0,1-25.666-643.081Z" fill="#fff"/>
    </g>
    <g id="Group_1024" data-name="Group 1024">
      <path id="Path_1246" data-name="Path 1246" d="M36.515-664.733c1.425.823,1.434,2.157.017,2.981a5.673,5.673,0,0,1-5.147,0c-1.427-.824-1.433-2.158-.017-2.981A5.667,5.667,0,0,1,36.515-664.733Z" fill="#fff"/>
    </g>
    <g id="Group_1025" data-name="Group 1025">
      <path id="Path_1247" data-name="Path 1247" d="M-13.49-693.6c1.427.824,1.434,2.158.016,2.982a5.671,5.671,0,0,1-5.146,0c-1.425-.822-1.433-2.158-.017-2.98A5.67,5.67,0,0,1-13.49-693.6Z" fill="#fff"/>
    </g>
    <g id="Group_1026" data-name="Group 1026">
      <path id="Path_1248" data-name="Path 1248" d="M43.545-715.256l5.164,2.981a5.67,5.67,0,0,1-5.147,0C42.135-713.1,42.127-714.433,43.545-715.256Z" fill="#fff"/>
    </g>
  </g>
</svg>
